<svg id="svg" version="1.1" width="1024" height="1024" xmlns="http://www.w3.org/2000/svg"><path d="M482.827 240.577 C 478.768 241.827,477.260 243.165,471.350 250.758 C 462.299 262.386,449.872 275.865,420.882 305.497 C 407.631 319.041,396.980 330.313,397.212 330.546 C 397.445 330.778,401.430 329.360,406.068 327.393 C 421.570 320.820,442.387 312.833,454.000 309.003 C 469.464 303.903,480.672 302.755,475.750 306.776 C 475.063 307.338,469.100 309.911,462.500 312.495 C 420.583 328.906,379.454 363.154,349.870 406.282 L 343.846 415.065 337.673 410.004 C 327.189 401.409,305.377 387.319,293.664 381.576 C 264.146 367.104,237.153 361.000,202.673 361.000 C 177.314 361.000,158.712 363.775,138.143 370.627 C 123.129 375.628,100.000 386.778,100.000 389.014 C 100.000 389.339,108.438 388.354,118.750 386.825 C 152.952 381.755,185.915 382.996,215.500 390.467 C 250.177 399.223,278.012 414.123,321.146 447.018 C 390.344 499.789,406.461 511.341,432.000 526.479 C 512.256 574.047,610.993 601.602,681.329 596.060 C 758.175 590.005,827.639 556.802,882.521 499.892 C 894.932 487.023,902.539 477.687,912.178 463.500 C 922.406 448.446,925.036 443.676,924.018 442.029 C 923.387 441.008,920.484 443.024,912.339 450.137 C 861.331 494.684,817.914 521.738,770.000 538.832 C 694.704 565.695,624.712 565.091,537.083 536.820 C 492.504 522.438,448.986 501.388,416.515 478.500 C 411.833 475.200,408.002 471.902,408.001 471.170 C 408.001 470.439,410.587 467.253,413.750 464.090 C 424.073 453.768,437.650 449.049,457.119 449.017 C 475.638 448.987,497.099 454.251,516.835 463.664 L 526.171 468.116 513.564 480.308 C 498.323 495.047,497.766 496.630,506.422 500.593 C 518.558 506.149,540.333 507.963,554.500 504.598 C 564.037 502.333,576.475 496.003,583.245 489.969 L 588.857 484.967 597.185 487.381 C 611.221 491.448,622.295 492.312,652.793 491.719 C 683.969 491.113,698.852 489.337,721.369 483.532 C 751.381 475.796,789.296 459.653,800.390 449.887 C 808.437 442.805,810.094 434.204,803.912 431.605 L 800.894 430.336 804.697 427.795 C 815.991 420.247,822.000 412.413,822.000 405.236 C 822.000 397.586,817.772 391.641,799.064 372.984 C 773.172 347.163,752.573 331.863,723.500 316.862 C 682.611 295.763,641.540 285.405,594.594 284.351 L 574.687 283.904 566.594 276.565 C 540.991 253.348,512.764 238.850,493.590 239.070 C 490.241 239.108,485.397 239.786,482.827 240.577 M629.841 340.250 C 622.157 350.556,615.718 363.931,612.842 375.560 C 609.863 387.602,609.890 405.885,612.904 417.500 C 619.374 442.435,638.073 465.251,659.500 474.356 L 663.500 476.056 658.569 475.440 C 650.874 474.478,641.314 471.214,631.500 466.199 C 624.168 462.452,620.730 459.829,612.950 452.050 C 605.078 444.179,602.671 441.006,599.252 434.000 C 585.029 404.847,593.012 369.611,619.665 343.909 C 634.226 329.868,638.811 328.219,629.841 340.250 M716.579 359.896 C 730.164 366.066,728.495 383.775,713.917 388.143 C 710.472 389.175,709.283 389.073,705.236 387.396 C 699.045 384.830,696.000 380.349,696.000 373.802 C 696.000 366.002,698.768 361.917,705.741 359.429 C 710.697 357.661,711.757 357.706,716.579 359.896 M801.000 404.236 C 801.000 406.073,794.907 413.913,790.276 418.036 C 784.794 422.916,773.513 430.474,769.339 432.062 C 764.502 433.903,744.755 439.088,744.303 438.636 C 743.381 437.715,756.787 424.543,764.656 418.637 C 774.851 410.985,784.176 406.246,792.297 404.590 C 799.626 403.095,801.000 403.039,801.000 404.236 M164.000 438.593 C 154.351 439.745,140.655 442.497,133.500 444.721 C 124.953 447.378,104.814 456.643,101.500 459.442 C 99.611 461.038,100.166 461.087,111.500 460.316 C 148.367 457.809,170.748 460.965,201.397 472.991 C 227.891 483.387,257.520 501.713,292.877 529.574 C 294.017 530.472,293.274 533.484,288.558 547.079 C 272.256 594.077,265.690 628.396,265.709 666.500 C 265.725 696.623,269.184 715.851,277.972 734.658 C 288.140 756.417,306.736 778.118,318.560 782.020 C 320.526 782.669,322.393 782.940,322.710 782.623 C 323.027 782.306,321.592 776.524,319.521 769.774 C 316.181 758.885,315.699 755.966,315.255 743.910 C 314.578 725.558,317.553 711.016,325.151 695.535 C 329.981 685.694,330.140 685.560,334.203 687.957 C 339.792 691.255,348.758 693.966,361.000 696.061 C 381.434 699.557,387.515 701.906,407.454 714.009 C 414.695 718.404,421.120 722.000,421.731 722.000 C 422.341 722.000,423.129 720.688,423.482 719.084 C 425.115 711.645,419.155 694.416,410.652 682.000 C 405.372 674.289,391.087 660.195,376.500 648.303 C 344.510 622.224,334.571 608.668,327.538 581.524 C 324.916 571.405,322.556 557.110,323.373 556.294 C 323.667 556.000,325.616 557.096,327.704 558.729 C 336.748 565.807,369.488 589.003,385.783 599.878 C 463.585 651.803,541.869 682.801,617.500 691.629 C 638.446 694.074,678.135 694.118,694.121 691.714 C 746.108 683.897,795.994 660.988,842.500 623.577 C 854.908 613.595,875.553 593.588,886.433 581.000 C 906.434 557.861,926.290 527.648,923.937 523.933 C 923.236 522.826,919.666 525.942,908.265 537.611 C 878.617 567.955,849.572 590.467,815.580 609.448 C 761.671 639.550,706.962 652.890,649.724 649.887 C 592.557 646.888,536.752 631.402,477.207 602.014 C 431.298 579.357,400.198 559.177,342.637 514.698 C 328.412 503.705,311.863 491.197,305.863 486.902 C 270.267 461.421,236.623 446.016,204.500 440.488 C 195.577 438.952,170.729 437.790,164.000 438.593 " stroke="none" fill="black" fill-rule="evenodd"/></svg>